<svg width="221" height="36" viewBox="0 0 221 36" fill="none" xmlns="http://www.w3.org/2000/svg">
<path fill-rule="evenodd" clip-rule="evenodd" d="M29.3321 30.7637C32.9495 27.5378 35.2273 22.8417 35.2273 17.6136C35.2273 12.3856 32.9495 7.68948 29.3322 4.46366C30.4857 4.14662 31.7003 3.9773 32.9545 3.9773C40.4857 3.9773 46.5909 10.0825 46.5909 17.6137C46.5909 25.1448 40.4857 31.25 32.9545 31.25C31.7003 31.25 30.4857 31.0807 29.3321 30.7637ZM25.9252 33.1468C20.0181 30.4694 15.9091 24.5214 15.9091 17.6137C15.9091 10.7059 20.0181 4.75791 25.9253 2.08049C28.0684 1.10909 30.4483 0.568207 32.9545 0.568207C42.3685 0.568207 50 8.19972 50 17.6137C50 27.0276 42.3685 34.6591 32.9545 34.6591C30.4483 34.6591 28.0684 34.1182 25.9252 33.1468ZM21.7608 34.7363C16.1838 31.083 12.5 24.7785 12.5 17.6137C12.5 10.4488 16.1839 4.14432 21.7608 0.491022C20.4309 0.170054 19.0421 0 17.6136 0C7.88589 0 0 7.88589 0 17.6136C0 21.2587 1.1072 24.6451 3.00363 27.4549L0.87463 34.6419L8.64547 32.7764C11.2723 34.3334 14.3386 35.2273 17.6136 35.2273C19.0421 35.2273 20.4309 35.0572 21.7608 34.7363Z" fill="#2FC875"/>
<path d="M216.844 29.24C215.104 29.24 213.785 28.85 212.885 28.07C212.005 27.27 211.564 26.11 211.564 24.59V16.79H208.354V13.37H211.564V9.37995L215.674 8.44995V13.37H220.145V16.79H215.674V23.75C215.674 24.47 215.834 24.99 216.154 25.31C216.474 25.61 217.035 25.76 217.835 25.76C218.235 25.76 218.595 25.74 218.915 25.7C219.255 25.64 219.625 25.54 220.025 25.4V28.79C219.605 28.93 219.074 29.04 218.434 29.12C217.814 29.2 217.284 29.24 216.844 29.24Z" fill="black"/>
<path d="M198.827 28.9999V16.7899H195.347V13.3699H198.827V11.8699C198.827 10.1099 199.337 8.76994 200.357 7.84994C201.377 6.90994 202.847 6.43994 204.767 6.43994C205.187 6.43994 205.617 6.45994 206.057 6.49994C206.497 6.53994 206.877 6.60994 207.197 6.70994V10.1599C206.817 10.0799 206.487 10.0199 206.207 9.97994C205.927 9.93994 205.617 9.91994 205.277 9.91994C204.497 9.91994 203.907 10.0899 203.507 10.4299C203.127 10.7499 202.937 11.2599 202.937 11.9599V13.3699H207.197V16.7899H202.937V28.9999H198.827Z" fill="black"/>
<path d="M185.205 29.2699C184.085 29.2699 183.095 29.0699 182.235 28.6699C181.375 28.2499 180.705 27.6799 180.225 26.9599C179.745 26.2399 179.505 25.4099 179.505 24.4699C179.505 22.9699 180.065 21.8099 181.185 20.9899C182.325 20.1499 183.885 19.7299 185.865 19.7299C187.225 19.7299 188.505 19.9399 189.705 20.3599V19.2199C189.705 18.3199 189.425 17.6399 188.865 17.1799C188.305 16.7199 187.485 16.4899 186.405 16.4899C185.745 16.4899 185.035 16.5999 184.275 16.8199C183.515 17.0199 182.635 17.3399 181.635 17.7799L180.135 14.7499C181.375 14.1899 182.555 13.7699 183.675 13.4899C184.815 13.2099 185.955 13.0699 187.095 13.0699C189.195 13.0699 190.825 13.5799 191.985 14.5999C193.165 15.5999 193.755 17.0199 193.755 18.8599V28.9999H189.705V27.8899C189.065 28.3699 188.375 28.7199 187.635 28.9399C186.895 29.1599 186.085 29.2699 185.205 29.2699ZM183.405 24.3799C183.405 24.9799 183.665 25.4599 184.185 25.8199C184.705 26.1599 185.395 26.3299 186.255 26.3299C186.935 26.3299 187.565 26.2499 188.145 26.0899C188.725 25.9099 189.245 25.6499 189.705 25.3099V23.0299C189.205 22.8299 188.685 22.6799 188.145 22.5799C187.605 22.4799 187.025 22.4299 186.405 22.4299C185.465 22.4299 184.725 22.6099 184.185 22.9699C183.665 23.3099 183.405 23.7799 183.405 24.3799Z" fill="black"/>
<path d="M168.419 28.9999V13.3699H172.529V15.1099C173.029 14.4299 173.629 13.9099 174.329 13.5499C175.029 13.1899 175.819 13.0099 176.699 13.0099C177.459 13.0299 178.029 13.1499 178.409 13.3699V16.9699C178.109 16.8299 177.779 16.7299 177.419 16.6699C177.059 16.5899 176.689 16.5499 176.309 16.5499C175.509 16.5499 174.779 16.7499 174.119 17.1499C173.459 17.5499 172.929 18.1199 172.529 18.8599V28.9999H168.419Z" fill="black"/>
<path d="M157.506 29.2999C155.946 29.2999 154.486 29.0299 153.126 28.4899C151.766 27.9299 150.576 27.1599 149.556 26.1799C148.556 25.1999 147.766 24.0599 147.186 22.7599C146.626 21.4399 146.346 20.0199 146.346 18.4999C146.346 16.9599 146.626 15.5399 147.186 14.2399C147.766 12.9199 148.566 11.7699 149.586 10.7899C150.606 9.80992 151.786 9.04992 153.126 8.50992C154.486 7.94992 155.946 7.66992 157.506 7.66992C158.666 7.66992 159.786 7.82992 160.866 8.14992C161.946 8.46992 162.946 8.91992 163.866 9.49992C164.806 10.0799 165.606 10.7799 166.266 11.5999L163.326 14.5099C162.566 13.5699 161.686 12.8599 160.686 12.3799C159.706 11.8999 158.646 11.6599 157.506 11.6599C156.566 11.6599 155.686 11.8399 154.866 12.1999C154.046 12.5399 153.336 13.0199 152.736 13.6399C152.136 14.2399 151.666 14.9599 151.326 15.7999C150.986 16.6199 150.816 17.5199 150.816 18.4999C150.816 19.4599 150.986 20.3599 151.326 21.1999C151.666 22.0199 152.146 22.7399 152.766 23.3599C153.386 23.9599 154.106 24.4299 154.926 24.7699C155.766 25.1099 156.676 25.2799 157.656 25.2799C158.756 25.2799 159.786 25.0499 160.746 24.5899C161.706 24.1299 162.556 23.4699 163.296 22.6099L166.146 25.4299C165.486 26.2299 164.696 26.9199 163.776 27.4999C162.856 28.0799 161.856 28.5299 160.776 28.8499C159.716 29.1499 158.626 29.2999 157.506 29.2999Z" fill="black"/>
<path d="M136.958 29.3C135.398 29.3 133.978 28.94 132.698 28.22C131.438 27.5 130.438 26.53 129.698 25.31C128.958 24.09 128.588 22.72 128.588 21.2C128.588 19.68 128.938 18.31 129.638 17.09C130.358 15.87 131.328 14.9 132.548 14.18C133.768 13.46 135.128 13.1 136.628 13.1C138.128 13.1 139.458 13.47 140.618 14.21C141.778 14.95 142.688 15.95 143.348 17.21C144.028 18.47 144.368 19.9 144.368 21.5V22.58H132.788C132.968 23.2 133.258 23.76 133.658 24.26C134.078 24.76 134.588 25.15 135.188 25.43C135.808 25.71 136.468 25.85 137.168 25.85C137.868 25.85 138.508 25.74 139.088 25.52C139.688 25.3 140.198 24.99 140.618 24.59L143.318 27.05C142.358 27.83 141.368 28.4 140.348 28.76C139.348 29.12 138.218 29.3 136.958 29.3ZM132.728 19.64H140.318C140.178 19.02 139.918 18.48 139.538 18.02C139.178 17.54 138.738 17.17 138.218 16.91C137.718 16.63 137.158 16.49 136.538 16.49C135.898 16.49 135.318 16.62 134.798 16.88C134.278 17.14 133.838 17.51 133.478 17.99C133.138 18.45 132.888 19 132.728 19.64Z" fill="black"/>
<path d="M120.275 29.3C118.835 29.3 117.505 29.12 116.285 28.76C115.065 28.38 114.005 27.84 113.105 27.14L115.145 24.41C116.045 25.01 116.905 25.46 117.725 25.76C118.565 26.06 119.395 26.21 120.215 26.21C121.135 26.21 121.865 26.06 122.405 25.76C122.965 25.44 123.245 25.03 123.245 24.53C123.245 24.13 123.085 23.81 122.765 23.57C122.465 23.33 121.975 23.16 121.295 23.06L118.295 22.61C116.735 22.37 115.555 21.87 114.755 21.11C113.955 20.33 113.555 19.31 113.555 18.05C113.555 17.03 113.815 16.16 114.335 15.44C114.875 14.7 115.625 14.13 116.585 13.73C117.565 13.31 118.725 13.1 120.065 13.1C121.205 13.1 122.315 13.26 123.395 13.58C124.495 13.9 125.525 14.39 126.485 15.05L124.505 17.72C123.645 17.18 122.825 16.79 122.045 16.55C121.265 16.31 120.475 16.19 119.675 16.19C118.935 16.19 118.335 16.33 117.875 16.61C117.435 16.89 117.215 17.26 117.215 17.72C117.215 18.14 117.375 18.47 117.695 18.71C118.015 18.95 118.565 19.12 119.345 19.22L122.315 19.67C123.875 19.89 125.065 20.39 125.885 21.17C126.705 21.93 127.115 22.92 127.115 24.14C127.115 25.14 126.815 26.03 126.215 26.81C125.615 27.57 124.805 28.18 123.785 28.64C122.765 29.08 121.595 29.3 120.275 29.3Z" fill="black"/>
<path d="M102.003 28.9999V13.3699H106.113V15.1099C106.613 14.4299 107.213 13.9099 107.913 13.5499C108.613 13.1899 109.403 13.0099 110.283 13.0099C111.043 13.0299 111.613 13.1499 111.993 13.3699V16.9699C111.693 16.8299 111.363 16.7299 111.003 16.6699C110.643 16.5899 110.273 16.5499 109.893 16.5499C109.093 16.5499 108.363 16.7499 107.703 17.1499C107.043 17.5499 106.513 18.1199 106.113 18.8599V28.9999H102.003Z" fill="black"/>
<path d="M92.0747 29.3C90.5147 29.3 89.0947 28.94 87.8147 28.22C86.5547 27.5 85.5547 26.53 84.8147 25.31C84.0747 24.09 83.7047 22.72 83.7047 21.2C83.7047 19.68 84.0547 18.31 84.7547 17.09C85.4747 15.87 86.4447 14.9 87.6647 14.18C88.8847 13.46 90.2447 13.1 91.7447 13.1C93.2447 13.1 94.5747 13.47 95.7347 14.21C96.8947 14.95 97.8047 15.95 98.4647 17.21C99.1447 18.47 99.4847 19.9 99.4847 21.5V22.58H87.9047C88.0847 23.2 88.3747 23.76 88.7747 24.26C89.1947 24.76 89.7047 25.15 90.3047 25.43C90.9247 25.71 91.5847 25.85 92.2847 25.85C92.9847 25.85 93.6247 25.74 94.2047 25.52C94.8047 25.3 95.3147 24.99 95.7347 24.59L98.4347 27.05C97.4747 27.83 96.4847 28.4 95.4647 28.76C94.4647 29.12 93.3347 29.3 92.0747 29.3ZM87.8447 19.64H95.4347C95.2947 19.02 95.0347 18.48 94.6547 18.02C94.2947 17.54 93.8547 17.17 93.3347 16.91C92.8347 16.63 92.2747 16.49 91.6547 16.49C91.0147 16.49 90.4347 16.62 89.9147 16.88C89.3947 17.14 88.9547 17.51 88.5947 17.99C88.2547 18.45 88.0047 19 87.8447 19.64Z" fill="black"/>
<path d="M71.4 29L62.88 8H67.59L74.01 24.53L80.58 8H85.08L76.44 29H71.4Z" fill="black"/>
</svg>
